<?xml version="1.0" encoding="UTF-8"?>
<!DOCTYPE svg PUBLIC "-//W3C//DTD SVG 1.1//EN" "http://www.w3.org/Graphics/SVG/1.1/DTD/svg11.dtd">
<svg version="1.1" xmlns="http://www.w3.org/2000/svg" xmlns:xlink="http://www.w3.org/1999/xlink" x="0" y="0" width="100" height="100" viewBox="0, 0, 100, 100">
  <g id="Layer_1">
    <g>
      <path d="M7.167,0.5 L93.833,0.5 C97.515,0.5 100.5,3.485 100.5,7.167 L100.5,93.833 C100.5,97.515 97.515,100.5 93.833,100.5 L7.167,100.5 C3.485,100.5 0.5,97.515 0.5,93.833 L0.5,7.167 C0.5,3.485 3.485,0.5 7.167,0.5 z" fill="#3866FF"/>
      <path d="M7.167,0.5 L93.833,0.5 C97.515,0.5 100.5,3.485 100.5,7.167 L100.5,93.833 C100.5,97.515 97.515,100.5 93.833,100.5 L7.167,100.5 C3.485,100.5 0.5,97.515 0.5,93.833 L0.5,7.167 C0.5,3.485 3.485,0.5 7.167,0.5 z" fill-opacity="0" stroke="#0137CF" stroke-width="3.333"/>
    </g>
    <text transform="matrix(1, 0, 0, 1, 9.852, 28.066)"/>
    <text transform="matrix(1, 0, 0, 1, 50, 50)">
      <tspan x="-37.553" y="17.556" font-family="HelveticaNeue" font-size="49.444" fill="#FFFFFF">MP</tspan>
    </text>
  </g>
</svg>
