<?xml version="1.0" encoding="utf-8"?>
<!-- Generator: Adobe Illustrator 19.0.1, SVG Export Plug-In . SVG Version: 6.00 Build 0)  -->
<svg version="1.1" id="Layer_1" xmlns="http://www.w3.org/2000/svg" xmlns:xlink="http://www.w3.org/1999/xlink" x="0px" y="0px"
	 viewBox="0 0 40 40" enable-background="new 0 0 40 40" xml:space="preserve">
<g>
	<polygon fill="#FFCC33" points="20,35 28.624,32.612 30.618,10.899 20,10.899 9.382,10.899 11.376,32.612 	"/>
	<polygon fill="#F8DC3D" points="20,33.174 27.022,31.208 28.68,12.612 20,12.612 	"/>
	<polygon fill="#FFFFFF" points="20,16.483 25.421,18.028 25.421,15.225 20,13.68 	"/>
	<polygon fill="#FFFFFF" points="20,30.283 25.564,28.782 26.166,21.447 20,20 20,22.628 23.301,23.403 23.02,26.826 20,27.64 	"/>
	<polygon fill="#EBEBEB" points="20,30.283 14.436,28.782 13.834,21.447 14.579,15.225 20,13.68 20,16.483 17.019,17.333 
		16.498,20.822 20,20 20,22.628 16.699,23.403 16.98,26.826 20,27.64 	"/>
	<polygon points="16.011,9.064 19.27,9.064 19.27,7.931 17.35,7.931 17.35,7.481 19.27,7.481 19.27,6.564 17.35,6.564 17.35,6.124 
		19.27,6.124 19.27,5 16.011,5 	"/>
	<polygon points="20.066,9.064 23.811,9.064 23.811,8.043 21.915,6.147 23.811,6.147 23.811,5 20.066,5 20.066,6.03 21.952,7.917 
		20.066,7.917 	"/>
</g>
</svg>
