<?xml version="1.0" encoding="utf-8"?>
<!-- Generator: Adobe Illustrator 16.0.0, SVG Export Plug-In . SVG Version: 6.00 Build 0)  -->
<!DOCTYPE svg PUBLIC "-//W3C//DTD SVG 1.1//EN" "http://www.w3.org/Graphics/SVG/1.1/DTD/svg11.dtd">
<svg version="1.1" id="diamond_1_" xmlns="http://www.w3.org/2000/svg" xmlns:xlink="http://www.w3.org/1999/xlink" x="0px" y="0px"
	 width="80px" height="60px" viewBox="0 0 80 60" enable-background="new 0 0 80 60" xml:space="preserve">
<g id="diamond">
	<g>
		<path fill="#333333" d="M78.844,14.051L66.041,1.247c-0.944-0.945-2.227-1.478-3.563-1.478H17.524
			c-1.336,0-2.619,0.532-3.564,1.478L1.159,14.051c-0.99,0.987-1.484,2.292-1.479,3.596c0.007,1.184,0.431,2.367,1.275,3.317
			l35.278,37.568c0.957,1.076,2.328,1.691,3.768,1.691s2.811-0.615,3.768-1.691l35.279-37.568c0.862-0.969,1.285-2.186,1.273-3.396
			C80.311,16.291,79.813,15.021,78.844,14.051z M60.713,4.81l-4.828,4.024L51.861,4.81H60.713z M60.898,17.411H49.526l6.204-5.169
			L60.898,17.411z M53.941,10.453l-6.381,5.316l-5.592-4.659l6.888-5.741L53.941,10.453z M45.594,17.411H34.406L40,12.749
			L45.594,17.411z M45.594,4.81L40,9.472L34.406,4.81H45.594z M38.031,11.11L32.44,15.77l-6.381-5.316l5.084-5.084L38.031,11.11z
			 M30.474,17.411H19.102l5.168-5.169L30.474,17.411z M28.138,4.81l-4.023,4.024L19.286,4.81H28.138z M16.527,5.792l5.798,4.831
			l-6.787,6.788H4.735L16.527,5.792z M6.898,19.931h8.955l15.841,26.406L6.898,19.931z M18.789,19.931h12.366l6.182,30.916
			L18.789,19.931z M33.725,19.931h12.551L40,51.311L33.725,19.931z M42.662,50.847l6.183-30.916h12.366L42.662,50.847z
			 M48.303,46.339l15.844-26.408h8.958L48.303,46.339z M64.461,17.411l-6.787-6.788l5.791-4.825l11.61,11.613H64.461z"/>
	</g>
</g>
</svg>
