<?xml version="1.0" encoding="utf-8"?>
<!-- Generator: Adobe Illustrator 16.0.0, SVG Export Plug-In . SVG Version: 6.00 Build 0)  -->
<!DOCTYPE svg PUBLIC "-//W3C//DTD SVG 1.1//EN" "http://www.w3.org/Graphics/SVG/1.1/DTD/svg11.dtd">
<svg version="1.1" id="paperplane_1_" xmlns="http://www.w3.org/2000/svg" xmlns:xlink="http://www.w3.org/1999/xlink" x="0px"
	 y="0px" width="64px" height="64px" viewBox="0 0 64 64" enable-background="new 0 0 64 64" xml:space="preserve">
<g id="paperplane">
	<g>
		<path fill="#333333" d="M63.086,0.318C62.756,0.103,62.377-0.003,62-0.003c-0.387,0-0.773,0.108-1.109,0.336l-60,40
			c-0.617,0.41-0.957,1.133-0.879,1.871c0.076,0.738,0.557,1.375,1.246,1.649l15.648,6.261l7.357,12.876
			c0.352,0.615,1.006,0.999,1.715,1.007H26c0.701,0,1.354-0.371,1.715-0.972l4.154-6.926l19.389,7.753
			c0.238,0.098,0.49,0.145,0.742,0.145c0.34,0,0.678-0.086,0.98-0.258c0.527-0.297,0.893-0.816,0.992-1.414l10-60
			C64.104,1.54,63.756,0.751,63.086,0.318z M18.392,46.4l-12.119-4.85l46.35-30.902l-33.7,36.074
			C18.746,46.618,18.587,46.478,18.392,46.4z M25.953,57.884l-5.574-9.754c-0.004-0.008-0.01-0.012-0.014-0.02L58.25,7.559
			L25.953,57.884z M50.436,59.216l-17.082-6.831c-0.408-0.161-0.83-0.216-1.248-0.239L58.41,11.368L50.436,59.216z"/>
	</g>
</g>
</svg>
