<?xml version="1.0" encoding="utf-8"?>
<!-- Generator: Adobe Illustrator 16.0.0, SVG Export Plug-In . SVG Version: 6.00 Build 0)  -->
<!DOCTYPE svg PUBLIC "-//W3C//DTD SVG 1.1//EN" "http://www.w3.org/Graphics/SVG/1.1/DTD/svg11.dtd">
<svg version="1.1" id="pen_copy_1_" xmlns="http://www.w3.org/2000/svg" xmlns:xlink="http://www.w3.org/1999/xlink" x="0px"
	 y="0px" width="64px" height="64px" viewBox="0 0 64 64" enable-background="new 0 0 64 64" xml:space="preserve">
<g id="pen_copy">
	<g>
		<path fill="#333333" d="M58.791,5.157c-3.291-3.285-7.621-5.16-11.893-5.16c-3.6,0-6.918,1.336-9.338,3.754l-9.734,9.809
			c-0.03,0.028-0.064,0.047-0.094,0.076c-0.015,0.017-0.025,0.038-0.041,0.053l0.004,0.005L7.035,34.509
			c-0.951,0.946-1.643,2.125-2.025,3.41L0.313,54.935C0.306,54.981,0,56.319,0,56.997c0,3.866,3.139,7,7.01,7
			c0.769,0,2.26-0.367,2.314-0.375l16.955-4.456c1.287-0.383,2.459-1.079,3.41-2.032l30.525-30.766
			C65.768,20.809,65.143,11.498,58.791,5.157z M30.643,16.402c2.357-2.301,5.793-2.964,9.176-2.123L20.973,33.123
			c-1.852-0.746-3.793-1.173-5.736-1.197L30.643,16.402z M8.336,59.743c-0.219,0.052-0.896,0.223-1.357,0.254
			C5.334,59.979,4,58.643,4,56.997c0.023-0.334,0.158-0.912,0.203-1.125l2.105-7.629c2.285-0.062,4.746,0.829,6.68,2.766
			c1.965,1.963,2.889,4.471,2.787,6.781L8.336,59.743z M25.857,55.018c-0.232,0.12-0.467,0.236-0.719,0.313l-7.391,1.94
			c-0.049-2.681-1.141-5.474-3.344-7.674c-2.083-2.088-4.81-3.291-7.531-3.398l1.992-7.215c0.145-0.48,0.43-0.952,0.781-1.369
			c4.012-2.871,10.182-2.023,14.469,2.266C28.648,44.413,29.35,51.053,25.857,55.018z M29.588,40.509
			c-0.746-1.227-1.594-2.408-2.645-3.457c-1.223-1.222-2.625-2.178-4.088-2.983L41.92,15.006c1.494,0.663,2.93,1.608,4.195,2.874
			c1.08,1.078,1.918,2.285,2.561,3.542L29.588,40.509z M47.529,33.435c-0.016,0.016-0.035,0.025-0.051,0.041l0.025,0.025
			L32.049,49.079c0.002-0.496,0.025-0.983-0.02-1.49c-0.164-1.806-0.674-3.576-1.438-5.256L49.5,23.427
			C50.656,27.079,50.064,30.899,47.529,33.435z M57.385,23.542l-3.369,3.395c0-0.451,0.055-0.887,0.014-1.348
			c-0.352-3.869-2.158-7.611-5.086-10.537c-3.258-3.259-7.58-5.131-11.857-5.143l3.314-3.34c1.654-1.654,3.967-2.572,6.498-2.572
			c3.221,0,6.525,1.456,9.066,3.99c2.387,2.383,3.811,5.343,4.012,8.337C60.164,19.118,59.244,21.682,57.385,23.542z"/>
	</g>
</g>
</svg>
